HIERARCHY
ROOT Model_Hips
{
	OFFSET 0.000000 96.915077 0.000000
	CHANNELS 6 Xposition Yposition Zposition Xrotation Yrotation Zrotation
	JOINT Model_Spine
	{
		OFFSET 0.000000 11.137703 -1.289900
		CHANNELS 3 Xrotation Yrotation Zrotation
		JOINT Model_Spine1
		{
			OFFSET 0.000000 12.993942 -1.504922
			CHANNELS 3 Xrotation Yrotation Zrotation
			JOINT Model_Spine2
			{
				OFFSET 0.000000 14.850220 -1.719911
				CHANNELS 3 Xrotation Yrotation Zrotation
				JOINT Model_Neck
				{
					OFFSET 0.000000 16.706543 -1.934903
					CHANNELS 3 Xrotation Yrotation Zrotation
					JOINT Model_Head
					{
						OFFSET 0.000000 10.471298 2.002100
						CHANNELS 3 Xrotation Yrotation Zrotation
						JOINT Model_HeadTop_End
						{
							OFFSET 0.000000 20.842606 3.985100
							CHANNELS 3 Xrotation Yrotation Zrotation
							End Site
							{
								OFFSET 0.000000 21.220154 0.000000
							}
						}
					}
				}
				JOINT Model_LeftShoulder
				{
					OFFSET 7.008500 14.768600 -1.919946
					CHANNELS 3 Xrotation Yrotation Zrotation
					JOINT Model_LeftArm
					{
						OFFSET 14.126271 -3.718048 0.029937
						CHANNELS 3 Xrotation Yrotation Zrotation
						JOINT Model_LeftForeArm
						{
							OFFSET 28.282801 0.000000 0.000000
							CHANNELS 3 Xrotation Yrotation Zrotation
							JOINT Model_LeftHand
							{
								OFFSET 26.204689 0.000000 0.000000
								CHANNELS 3 Xrotation Yrotation Zrotation
								End Site
								{
									OFFSET 26.204704 0.000000 0.000000
								}
							}
						}
					}
				}
				JOINT Model_RightShoulder
				{
					OFFSET -7.008500 14.768555 -1.949840
					CHANNELS 3 Xrotation Yrotation Zrotation
					JOINT Model_RightArm
					{
						OFFSET -14.126281 -3.718018 -0.029932
						CHANNELS 3 Xrotation Yrotation Zrotation
						JOINT Model_RightForeArm
						{
							OFFSET -28.283798 0.000000 -0.000001
							CHANNELS 3 Xrotation Yrotation Zrotation
							JOINT Model_RightHand
							{
								OFFSET -26.204193 0.000000 -0.000001
								CHANNELS 3 Xrotation Yrotation Zrotation
								End Site
								{
									OFFSET -26.204208 0.000000 -0.000001
								}
							}
						}
					}
				}
			}
		}
	}
	JOINT Model_LeftUpLeg
	{
		OFFSET 8.327700 -6.193199 -0.402800
		CHANNELS 3 Xrotation Yrotation Zrotation
		JOINT Model_LeftLeg
		{
			OFFSET 0.735802 -42.108742 -0.610721
			CHANNELS 3 Xrotation Yrotation Zrotation
			JOINT Model_LeftFoot
			{
				OFFSET -0.735806 -36.833748 -0.172876
				CHANNELS 3 Xrotation Yrotation Zrotation
				JOINT Model_LeftToeBase
				{
					OFFSET -0.565857 -11.977769 16.297714
					CHANNELS 3 Xrotation Yrotation Zrotation
					JOINT Model_LeftToe_End
					{
						OFFSET -0.111712 -0.312793 7.857784
						CHANNELS 3 Xrotation Yrotation Zrotation
						End Site
						{
							OFFSET -0.111712 -0.312793 7.857784
						}
					}
				}
			}
		}
	}
	JOINT Model_RightUpLeg
	{
		OFFSET -8.327700 -6.193199 -0.516500
		CHANNELS 3 Xrotation Yrotation Zrotation
		JOINT Model_RightLeg
		{
			OFFSET -0.735785 -42.108738 -0.434061
			CHANNELS 3 Xrotation Yrotation Zrotation
			JOINT Model_RightFoot
			{
				OFFSET 0.735776 -36.833748 -0.021630
				CHANNELS 3 Xrotation Yrotation Zrotation
				JOINT Model_RightToeBase
				{
					OFFSET 0.565817 -11.977745 15.903093
					CHANNELS 3 Xrotation Yrotation Zrotation
					JOINT Model_RightToe_End
					{
						OFFSET 0.111702 -0.312791 7.811342
						CHANNELS 3 Xrotation Yrotation Zrotation
						End Site
						{
							OFFSET 0.111702 -0.312791 7.811342
						}
					}
				}
			}
		}
	}
}
MOTION
Frames: 6
Frame Time: 0.016667
299.201111 93.109245 55.506195 174.994924 -1.957048 -187.120627 2.888428 5.063548 -0.309721 5.918722 10.115854 -1.456188 5.918718 10.115855 -1.456188 1.648299 -0.573373 -0.680817 1.648317 -0.573369 -0.680815 -0.000001 0.000001 -0.000001 -0.430830 5.772979 -18.466670 34.216167 -22.023810 -48.231336 98.384681 -59.288877 112.212030 0.000002 -0.000004 0.000001 -4.292365 17.680278 12.307495 -2.522219 26.953707 60.228335 -13.015675 96.618545 1.599120 -0.000000 -0.000000 -0.000001 -30.403754 -0.993363 -5.597865 64.028119 14.973028 6.668395 -6.345161 -0.235250 6.255819 -26.238862 0.207238 -8.023287 0.000001 -0.000000 -0.000000 2.293259 -10.441416 0.589405 34.200810 2.006141 1.754528 -12.374196 -1.333707 7.423712 -31.786590 -1.512325 -8.018764 -0.000000 0.000002 0.000000 
299.289093 93.855980 52.725319 174.055609 -3.792740 -186.231310 2.722306 5.219012 -0.579176 5.589874 10.401346 -1.820459 5.589880 10.401343 -1.820460 1.254622 -0.696265 -0.789767 1.254616 -0.696266 -0.789768 0.000000 -0.000001 -0.000000 -0.429228 6.078724 -17.583579 34.515278 -20.717926 -48.141946 99.304612 -59.419074 113.379877 -0.000000 -0.000002 0.000001 -4.390950 18.119245 12.543125 -1.319453 28.738171 58.840106 -11.371141 98.158138 -0.520554 0.000001 -0.000000 -0.000002 -30.694382 0.394943 -7.658335 56.522407 12.449866 6.449351 -8.908699 -0.492512 7.022030 -19.341183 -0.951680 -5.096432 0.000000 -0.000000 0.000000 2.504121 -11.102706 -0.448869 33.533476 3.392099 1.585824 -6.385881 -0.722208 8.095071 -33.183784 -1.169294 -3.934547 0.000000 0.000002 0.000000 
299.374390 94.286407 49.915672 173.099724 -5.597577 -185.715193 2.518002 5.269580 -0.776943 5.179744 10.497692 -2.070512 5.179753 10.497699 -2.070514 0.804574 -0.771988 -0.892109 0.804523 -0.771983 -0.892109 -0.000000 -0.000002 0.000001 -0.427244 6.390702 -16.813452 34.413908 -19.144901 -48.249594 100.272757 -59.362260 114.536795 -0.000000 -0.000001 0.000001 -4.498499 18.522785 12.818746 0.107670 30.296667 57.228758 -11.378750 99.764974 -1.098509 -0.000001 -0.000000 -0.000002 -30.588668 1.666352 -9.198527 48.148141 9.460495 5.741736 -8.443060 -0.554536 7.693511 -14.915603 -1.185008 -2.182970 0.000001 0.000000 0.000000 3.272157 -11.336909 -0.968474 32.084626 4.195381 1.274879 -0.433734 -0.086474 9.380472 -36.819613 -0.815903 -2.901761 -0.000000 -0.000000 0.000000 
299.442596 94.498032 47.082069 172.275444 -7.235967 -185.651276 2.306441 5.273241 -0.874229 4.751407 10.520346 -2.164554 4.751410 10.520336 -2.164553 0.404193 -0.804858 -0.995954 0.404192 -0.804843 -0.995955 0.000003 0.000001 -0.000001 -0.425917 6.706222 -16.119147 33.989118 -17.369531 -48.580294 101.353198 -59.318875 115.727638 -0.000003 -0.000002 -0.000002 -4.586834 18.842617 13.041680 1.460971 31.481493 55.728418 -10.821064 101.267841 -2.281832 -0.000002 -0.000001 -0.000001 -29.688848 2.759194 -10.155538 38.901858 7.053519 4.211727 -6.085401 -0.467220 9.228739 -12.142337 -1.445963 0.594796 0.000000 0.000000 -0.000000 5.009167 -11.183595 -0.867906 29.199086 3.946526 0.873943 6.171201 0.755521 11.330518 -42.540515 -0.749432 -3.609721 0.000001 -0.000001 0.000000 
299.473480 94.496460 44.247253 171.726419 -8.657775 -186.046567 2.120030 5.252921 -0.846602 4.368773 10.507518 -2.059288 4.368774 10.507510 -2.059283 0.121142 -0.798792 -1.072209 0.121141 -0.798810 -1.072209 0.000001 0.000000 -0.000000 -0.429047 7.017739 -15.422258 33.410256 -15.466103 -49.128222 102.545988 -59.376023 116.948685 0.000000 -0.000001 0.000000 -4.660913 19.054320 13.243557 2.558802 32.239917 54.588409 -8.149574 102.423085 -5.436879 0.000000 0.000000 0.000001 -28.132316 3.579355 -10.816718 29.893026 6.048973 2.395828 -3.962956 -0.278412 11.461494 -9.160635 -1.973219 2.619095 0.000000 0.000000 0.000000 7.472783 -10.649952 -0.800375 25.351625 1.529854 0.490376 14.080580 2.449817 16.904619 -48.022514 0.232953 -5.005890 -0.000001 0.000001 0.000000 
299.448944 94.267647 41.427963 171.564189 -9.916690 -186.837571 1.987839 5.192566 -0.687272 4.088089 10.418865 -1.734625 4.088081 10.418868 -1.734627 -0.015011 -0.757307 -1.089092 -0.014994 -0.757335 -1.089092 -0.000000 -0.000002 0.000002 -0.438199 7.325048 -14.690255 32.889895 -13.530642 -49.828368 103.586225 -59.340178 117.966137 0.000003 -0.000003 0.000002 -4.732524 19.140697 13.479337 3.369519 32.615058 53.940360 -2.855781 103.078367 -10.913792 -0.000001 -0.000000 0.000000 -28.651479 4.384197 -10.678228 26.875751 6.673744 1.099305 -3.582879 0.015205 8.876306 -8.137552 -2.682435 2.986191 0.000000 0.000002 -0.000000 10.727529 -10.045429 -0.020563 21.828129 -1.256586 0.187719 19.928354 3.942420 19.518992 -49.112103 -1.229301 -3.905124 0.000001 -0.000001 0.000000 
